# xmcd
#
# Track frame offsets: 
#        150
#        17206
#        36303
#        55302
#        74617
#        95455
#        109466
#        127290
#        145565
#        168243
#
# Disc length: 2495 seconds
#
# Revision: 0
# Processed by: cddbd v1.5.2PL0 Copyright (c) Steve Scherf et al.
# Submitted via: ExactAudioCopy v1.0b3
#
DISCID=9509bd0a
DTITLE=Various Artist - Em Nhu Nang Xuan
DYEAR=2006
DGENRE=
TTITLE0=Phan Dinh Tung - Em nhu nang Xuan
TTITLE1=nhom Mat Ngoc - Pho Xuan
TTITLE2=Luong Bang Quang - Cuoi mot minh
TTITLE3=nhom 5 Dong Ke - Xuan ca
TTITLE4=Nhat Tinh Anh - Mua Xuan yeu
TTITLE5=nhom The Bells - Hoa Xuan
TTITLE6=Khanh Ngoc - Ron rang Xuan den
TTITLE7=nhom MTV - Nhu la Xuan ve
TTITLE8=Thanh Lam - Nang co con Xuan
TTITLE9=Xuan Phu - Mua Xuan nho que
EXTD=
EXTT0=
EXTT1=
EXTT2=
EXTT3=
EXTT4=
EXTT5=
EXTT6=
EXTT7=
EXTT8=
EXTT9=
PLAYORDER=
